<?xml version="1.0" encoding="utf-8"?>
<!-- Generator: Adobe Illustrator 18.1.1, SVG Export Plug-In . SVG Version: 6.00 Build 0)  -->
<svg version="1.1" id="Layer_1" xmlns="http://www.w3.org/2000/svg" xmlns:xlink="http://www.w3.org/1999/xlink" x="0px" y="0px"
	 viewBox="-81.4 211.4 500 270" enable-background="new -81.4 211.4 500 270" xml:space="preserve">
<g>
	<path fill="#FAAB4F" d="M403.5,217.4H253.1c-4.8,0-8.8,3.9-8.8,8.8v58.2c0,4.8,3.9,8.8,8.8,8.8h150.4c4.8,0,8.8-3.9,8.8-8.8v-58.2
		C412.3,221.3,408.4,217.4,403.5,217.4z"/>
	<path fill="#FAAB4F" d="M66.2,293.1h150.4c4.8,0,8.8-3.9,8.8-8.8v-58.2c0-4.8-3.9-8.8-8.8-8.8H66.2c-4.8,0-8.8,3.9-8.8,8.8v58.2
		C57.5,289.2,61.4,293.1,66.2,293.1z"/>
	<path fill="#FAAB4F" d="M-66.4,293.1h99.1c4.8,0,8.8-3.9,8.8-8.8v-58.2c0-4.8-3.9-8.8-8.8-8.8h-99.1c-4.8,0-8.8,3.9-8.8,8.8v58.2
		C-75.1,289.2-71.2,293.1-66.4,293.1z"/>
	<path fill="#FAAB4F" d="M403.5,398.7H253.1c-4.8,0-8.8,3.9-8.8,8.8v58.2c0,4.8,3.9,8.8,8.8,8.8h150.4c4.8,0,8.8-3.9,8.8-8.8v-58.2
		C412.3,402.6,408.4,398.7,403.5,398.7z"/>
	<path fill="#FAAB4F" d="M218.3,398.7H67.9c-4.8,0-8.8,3.9-8.8,8.8v58.2c0,4.8,3.9,8.8,8.8,8.8h150.4c4.8,0,8.8-3.9,8.8-8.8v-58.2
		C227.1,402.6,223.1,398.7,218.3,398.7z"/>
	<path fill="#FAAB4F" d="M32.8,398.7h-99.1c-4.8,0-8.8,3.9-8.8,8.8v58.2c0,4.8,3.9,8.8,8.8,8.8h99.1c4.8,0,8.8-3.9,8.8-8.8v-58.2
		C41.6,402.6,37.6,398.7,32.8,398.7z"/>
	<path fill="#FAAB4F" d="M-66.4,384.1H84.1c4.8,0,8.8-3.9,8.8-8.8v-58.2c0-4.8-3.9-8.8-8.8-8.8H-66.4c-4.8,0-8.8,3.9-8.8,8.8v58.2
		C-75.1,380.2-71.2,384.1-66.4,384.1z"/>
	<path fill="#FAAB4F" d="M403.5,308.4h-99.1c-4.8,0-8.8,3.9-8.8,8.8v58.2c0,4.8,3.9,8.8,8.8,8.8h99.1c4.8,0,8.8-3.9,8.8-8.8v-58.2
		C412.3,312.3,408.4,308.4,403.5,308.4z"/>
</g>
<rect x="-243" y="95" display="none" fill="#414042" width="792" height="26.5"/>
<g display="none">
	<path display="inline" fill="#414042" d="M168.8,344.1c0,0.5-0.1,0.9-0.4,1.3c-0.3,0.4-0.7,0.5-1.2,0.5l-4.4,0.2V359
		c0,1.1-0.5,1.6-1.6,1.6h-16.9c-1.1,0-1.6-0.5-1.6-1.6v-12.5h-25.1c-1.1,0-1.6-0.5-1.6-1.6v-8.7l18.5-49.1c0.1-0.4,0.4-0.8,0.7-1.1
		s0.7-0.5,1.3-0.5h15.9c0.7,0,1.1,0.2,1.5,0.7c0.3,0.4,0.4,0.9,0.2,1.5l-17.3,42.8v0.2h7.7l5.5-18.7c0.1-0.4,0.3-0.9,0.6-1.3
		c0.3-0.4,0.6-0.6,1.1-0.7l8.7-0.5c0.4,0,0.9,0.2,1.3,0.5c0.4,0.3,0.7,0.7,0.7,1.1l0.5,19.6h4.4c1.1,0,1.6,0.5,1.6,1.6L168.8,344.1
		L168.8,344.1z"/>
	<path display="inline" fill="#414042" d="M221.6,333.8c0,4.1-1.1,7.4-3.4,9.6s-5.5,3.4-9.6,3.4h-22.9c-4.1,0-7.4-1.1-9.6-3.4
		c-2.3-2.3-3.4-5.5-3.4-9.6V298c0-4.1,1.1-7.4,3.4-9.6c2.3-2.3,5.5-3.4,9.6-3.4h22.9c4.1,0,7.4,1.1,9.6,3.4s3.4,5.5,3.4,9.6V333.8z
		 M201.8,301.2c0-0.4-0.2-0.8-0.5-1.1c-0.3-0.3-0.7-0.5-1.1-0.5h-6.1c-0.4,0-0.8,0.2-1.1,0.5c-0.3,0.3-0.5,0.7-0.5,1.1v29.4
		c0,0.4,0.2,0.8,0.5,1.1c0.3,0.3,0.7,0.5,1.1,0.5h6.1c0.4,0,0.8-0.2,1.1-0.5c0.3-0.3,0.5-0.7,0.5-1.1V301.2z"/>
	<path display="inline" fill="#414042" d="M279.4,344.1c0,0.5-0.1,0.9-0.4,1.3c-0.3,0.4-0.7,0.5-1.2,0.5l-4.4,0.2V359
		c0,1.1-0.5,1.6-1.6,1.6h-16.9c-1.1,0-1.6-0.5-1.6-1.6v-12.5h-25.1c-1.1,0-1.6-0.5-1.6-1.6v-8.7l18.5-49.1c0.1-0.4,0.4-0.8,0.7-1.1
		c0.3-0.3,0.7-0.5,1.3-0.5h15.9c0.7,0,1.1,0.2,1.5,0.7c0.3,0.4,0.4,0.9,0.2,1.5l-17.3,42.8v0.2h7.7l5.5-18.7
		c0.1-0.4,0.3-0.9,0.6-1.3c0.3-0.4,0.6-0.6,1.1-0.7l8.7-0.5c0.4,0,0.9,0.2,1.3,0.5c0.4,0.3,0.7,0.7,0.7,1.1l0.5,19.6h4.4
		c1.1,0,1.6,0.5,1.6,1.6L279.4,344.1L279.4,344.1z"/>
</g>
<g display="none">
	<path display="inline" fill="#414042" d="M348.2,476.6h-1.1v-7.1l-2.4,0.1v7h-1.1v-8.1h1.1v0.2c0.4-0.1,0.9-0.1,1.3-0.2
		c0.5-0.1,1-0.1,1.3-0.1c0.6,0,0.9,0.3,0.9,0.9L348.2,476.6L348.2,476.6z"/>
	<path display="inline" fill="#414042" d="M354.6,475.7c0,0.6-0.3,0.9-0.9,0.9h-2.8c-0.6,0-0.9-0.3-0.9-0.9v-6.2
		c0-0.6,0.3-0.9,0.9-0.9h2.8c0.6,0,0.9,0.3,0.9,0.9V475.7z M353.5,475.6v-6.2h-2.4v6.2H353.5z"/>
	<path display="inline" fill="#414042" d="M359.4,476.6h-1.6c-0.6,0-0.9-0.3-0.9-0.9v-6.2h-1v-1h1V466h1.1v2.5h1.4v1h-1.4v6.2h1.4
		V476.6z"/>
	<path display="inline" fill="#414042" d="M367.2,464.6h-1.6v4h1.4v1h-1.4v7.1h-1.1v-7.1h-0.9v-1h0.9v-4c0-0.6,0.3-0.9,0.9-0.9h1.7
		L367.2,464.6L367.2,464.6z"/>
	<path display="inline" fill="#414042" d="M372.8,475.7c0,0.6-0.3,0.9-0.9,0.9h-2.8c-0.6,0-0.9-0.3-0.9-0.9v-6.2
		c0-0.6,0.3-0.9,0.9-0.9h2.8c0.6,0,0.9,0.3,0.9,0.9V475.7z M371.7,475.6v-6.2h-2.4v6.2H371.7z"/>
	<path display="inline" fill="#414042" d="M379.3,476.6h-1.1v-0.2c-0.4,0.1-0.9,0.1-1.3,0.2c-0.5,0.1-1,0.1-1.3,0.1
		c-0.6,0-0.9-0.3-0.9-0.9v-7.3h1.1v7.1l2.5-0.1v-7h1.1L379.3,476.6L379.3,476.6z"/>
	<path display="inline" fill="#414042" d="M385.7,476.6h-1.1v-7.1l-2.4,0.1v7h-1.1v-8.1h1.1v0.2c0.4-0.1,0.9-0.1,1.3-0.2
		c0.5-0.1,1-0.1,1.3-0.1c0.6,0,0.9,0.3,0.9,0.9L385.7,476.6L385.7,476.6z"/>
	<path display="inline" fill="#414042" d="M392.1,476.6H391v-0.2c-1.2,0.2-1.8,0.3-2,0.3c-0.5,0-0.9-0.2-1.1-0.5s-0.4-0.7-0.4-1.2
		v-4.7c0-0.5,0.2-0.9,0.5-1.2c0.3-0.3,0.7-0.5,1.2-0.5h1.8v-4.9h1.1L392.1,476.6L392.1,476.6z M391,475.6v-6.1h-1.5
		c-0.6,0-0.9,0.3-0.9,0.9v4.3c0,0.6,0.3,0.9,0.9,0.9C389.7,475.7,390.2,475.7,391,475.6z"/>
	<path display="inline" fill="#414042" d="M398.7,463.6l-0.3,10.1h-0.8l-0.3-10.1H398.7z M398.7,476.6h-1.2v-1.5h1.2V476.6z"/>
</g>
<g display="none">
	<path display="inline" fill="#414042" d="M290.2,493.8c0,0.5-0.2,0.9-0.5,1.2c-0.3,0.3-0.7,0.5-1.2,0.5h-1.8v3.1h-1.1v-11.2h1.1
		v0.2c0.4-0.1,0.9-0.1,1.3-0.2c0.6-0.1,1-0.1,1.3-0.1c0.6,0,0.9,0.3,0.9,0.9L290.2,493.8L290.2,493.8z M289.1,493.6v-5.2l-2.4,0.1
		v6.1h1.5C288.8,494.6,289.1,494.3,289.1,493.6z"/>
	<path display="inline" fill="#414042" d="M296.5,495.5h-1.1v-0.2c-0.4,0.1-0.9,0.1-1.3,0.2c-0.5,0.1-1,0.1-1.3,0.1
		c-0.6,0-0.9-0.3-0.9-0.9v-3c0-0.6,0.3-0.9,0.9-0.9h2.6v-2.4h-2.4v1.4H292v-1.4c0-0.6,0.3-0.9,0.9-0.9h2.7c0.6,0,0.9,0.3,0.9,0.9
		L296.5,495.5L296.5,495.5z M295.5,494.5v-2.9H293v2.9L295.5,494.5z M296.1,484.8l-2,1.9h-0.8v0l1.2-1.9L296.1,484.8L296.1,484.8z"
		/>
	<path display="inline" fill="#414042" d="M303,497.7c0,0.6-0.3,0.9-0.9,0.9h-2.6c-0.6,0-1-0.4-1-1.2c0-0.1,0-0.2,0-0.4
		c0-0.2,0-0.3,0-0.4h1.1v1.1h2.3v-2.1H300c-0.5,0-0.9-0.2-1.2-0.5c-0.3-0.3-0.5-0.7-0.5-1.2v-4.7c0-0.5,0.1-0.9,0.4-1.2
		c0.3-0.3,0.7-0.5,1.1-0.5c0.1,0,0.8,0.1,2,0.3v-0.2h1.1L303,497.7L303,497.7z M301.9,494.6v-6.1c-0.9-0.1-1.4-0.1-1.5-0.1
		c-0.6,0-0.9,0.3-0.9,0.9v4.3c0,0.6,0.3,0.9,0.9,0.9L301.9,494.6L301.9,494.6z"/>
	<path display="inline" fill="#414042" d="M306,485.7h-1.1v-1.4h1.1V485.7z M305.9,495.5h-1.1v-8.1h1.1V495.5z"/>
	<path display="inline" fill="#414042" d="M312.5,495.5h-1.1v-7.1l-2.4,0.1v7h-1.1v-8.1h1.1v0.2c0.4-0.1,0.9-0.1,1.3-0.2
		c0.5-0.1,1-0.1,1.3-0.1c0.6,0,0.9,0.3,0.9,0.9L312.5,495.5L312.5,495.5z"/>
	<path display="inline" fill="#414042" d="M318.9,495.5h-1.1v-0.2c-0.4,0.1-0.9,0.1-1.3,0.2c-0.5,0.1-1,0.1-1.3,0.1
		c-0.6,0-0.9-0.3-0.9-0.9v-3c0-0.6,0.3-0.9,0.9-0.9h2.6v-2.4h-2.4v1.4h-1.1v-1.4c0-0.6,0.3-0.9,0.9-0.9h2.7c0.6,0,0.9,0.3,0.9,0.9
		V495.5z M317.8,494.5v-2.9h-2.5v2.9L317.8,494.5z"/>
	<path display="inline" fill="#414042" d="M328.7,495.5h-1.1v-7.1l-2.4,0.1v7H324v-8.1h1.1v0.2c0.4-0.1,0.9-0.1,1.3-0.2
		c0.5-0.1,1-0.1,1.3-0.1c0.6,0,0.9,0.3,0.9,0.9L328.7,495.5L328.7,495.5z"/>
	<path display="inline" fill="#414042" d="M335.1,494.6c0,0.6-0.3,0.9-0.9,0.9h-2.8c-0.6,0-0.9-0.3-0.9-0.9v-6.2
		c0-0.6,0.3-0.9,0.9-0.9h2.8c0.6,0,0.9,0.3,0.9,0.9L335.1,494.6L335.1,494.6z M334,494.6v-6.2h-2.4v6.2H334z"/>
	<path display="inline" fill="#414042" d="M344.8,494.6c0,0.6-0.3,0.9-0.9,0.9h-2.7c-0.6,0-0.9-0.3-0.9-0.9v-6.2
		c0-0.6,0.3-0.9,0.9-0.9h2.7c0.6,0,0.9,0.3,0.9,0.9v2.9l-0.4,0.4h-3.1v2.9h2.4v-1.5h1.1V494.6z M343.7,490.8v-2.4h-2.4v2.4H343.7z"
		/>
	<path display="inline" fill="#414042" d="M351.3,495.5h-1.1v-7.1l-2.4,0.1v7h-1.1v-8.1h1.1v0.2c0.4-0.1,0.9-0.1,1.3-0.2
		c0.5-0.1,1-0.1,1.3-0.1c0.6,0,0.9,0.3,0.9,0.9L351.3,495.5L351.3,495.5z"/>
	<path display="inline" fill="#414042" d="M357.6,494.6c0,0.6-0.3,0.9-0.9,0.9H354c-0.6,0-0.9-0.3-0.9-0.9v-6.2
		c0-0.6,0.3-0.9,0.9-0.9h2.6c0.6,0,0.9,0.3,0.9,0.9v1.6h-1.1v-1.6h-2.3v6.2h2.3v-1.8h1.1V494.6z"/>
	<path display="inline" fill="#414042" d="M364,494.6c0,0.6-0.3,0.9-0.9,0.9h-2.8c-0.6,0-0.9-0.3-0.9-0.9v-6.2
		c0-0.6,0.3-0.9,0.9-0.9h2.8c0.6,0,0.9,0.3,0.9,0.9V494.6z M362.9,494.6v-6.2h-2.4v6.2H362.9z"/>
	<path display="inline" fill="#414042" d="M370.5,495.5h-1.1v-7.1l-2.4,0.1v7h-1.1v-8.1h1.1v0.2c0.4-0.1,0.9-0.1,1.3-0.2
		c0.5-0.1,1-0.1,1.3-0.1c0.6,0,0.9,0.3,0.9,0.9L370.5,495.5L370.5,495.5z"/>
	<path display="inline" fill="#414042" d="M375.2,495.5h-1.6c-0.6,0-0.9-0.3-0.9-0.9v-6.2h-1v-1h1v-2.5h1.1v2.5h1.4v1h-1.4v6.2h1.4
		V495.5z"/>
	<path display="inline" fill="#414042" d="M380.9,490.1h-1.1v-1.7l-2,0.1v7h-1.1v-8.1h1.1v0.2c0.4-0.1,0.7-0.1,1.1-0.2
		c0.4-0.1,0.8-0.1,1.1-0.1c0.6,0,0.9,0.3,0.9,0.9L380.9,490.1L380.9,490.1z"/>
	<path display="inline" fill="#414042" d="M386.9,495.5h-1.1v-0.2c-0.4,0.1-0.9,0.1-1.3,0.2c-0.5,0.1-1,0.1-1.3,0.1
		c-0.6,0-0.9-0.3-0.9-0.9v-3c0-0.6,0.3-0.9,0.9-0.9h2.6v-2.4h-2.4v1.4h-1.1v-1.4c0-0.6,0.3-0.9,0.9-0.9h2.7c0.6,0,0.9,0.3,0.9,0.9
		V495.5z M385.8,494.5v-2.9h-2.5v2.9L385.8,494.5z"/>
	<path display="inline" fill="#414042" d="M393.3,495.5h-1.1v-0.2c-1.2,0.2-1.8,0.3-2,0.3c-0.5,0-0.9-0.2-1.1-0.5
		c-0.3-0.3-0.4-0.7-0.4-1.2v-4.7c0-0.5,0.2-0.9,0.5-1.2c0.3-0.3,0.7-0.5,1.2-0.5h1.8v-4.9h1.1L393.3,495.5L393.3,495.5z
		 M392.2,494.5v-6.1h-1.5c-0.6,0-0.9,0.3-0.9,0.9v4.3c0,0.6,0.3,0.9,0.9,0.9C390.8,494.6,391.3,494.6,392.2,494.5z"/>
	<path display="inline" fill="#414042" d="M399.7,495.5h-1.1v-0.2c-0.4,0.1-0.9,0.1-1.3,0.2c-0.5,0.1-1,0.1-1.3,0.1
		c-0.6,0-0.9-0.3-0.9-0.9v-3c0-0.6,0.3-0.9,0.9-0.9h2.6v-2.4h-2.4v1.4h-1.1v-1.4c0-0.6,0.3-0.9,0.9-0.9h2.7c0.6,0,0.9,0.3,0.9,0.9
		V495.5z M398.6,494.5v-2.9h-2.5v2.9L398.6,494.5z"/>
</g>
</svg>
