<?xml version="1.0" encoding="utf-8"?>
<!-- Generator: Adobe Illustrator 18.1.1, SVG Export Plug-In . SVG Version: 6.00 Build 0)  -->
<svg version="1.1" id="Layer_1" xmlns="http://www.w3.org/2000/svg" xmlns:xlink="http://www.w3.org/1999/xlink" x="0px" y="0px"
	 viewBox="0 491.2 1279.8 308.8" enable-background="new 0 491.2 1279.8 308.8" xml:space="preserve">
<g>
	<path fill="#FAAB4C" d="M72.5,644c0-6.7,3.3-9.9,9.9-9.9h40.9v165.3H196V634.8h41.8c6.7,0,9.9,3.3,9.9,9.9v155.2h71.8V618
		c0-38.4-19.2-57.6-56.7-57.6H56.7C19.2,560.5,0,579.8,0,618v181.9h72.5C72.5,799.2,72.5,644,72.5,644z"/>
	<path fill="#FAAB4C" d="M398,799.2h102.6c36.7,0,55.9-19.2,55.9-56.7V618.2c0-38.4-19.2-57.6-56.7-57.6H396.3
		c-37.5,0-56.7,19.2-56.7,57.6v125.9C339.5,780.8,359.6,799.2,398,799.2z M413,715.8v-70.9c0-6.7,3.3-9.9,9.9-9.9h50.9
		c6.7,0,9.9,3.3,9.9,9.9v71.8c0,6.7-3.3,9.9-9.9,9.9H423C416.3,725.8,413,722.3,413,715.8z"/>
	<path fill="#FAAB4C" d="M633.3,799.2h158.6v-308h-73.5v69.2h-86.8c-37.5,0-56.7,19.2-56.7,57.6v126.1
		C574.9,780.8,594.9,799.2,633.3,799.2z M648.2,715.8v-70.9c0-6.7,3.3-9.9,9.9-9.9h60.1v91.7h-60.1
		C651.7,725.8,648.2,722.3,648.2,715.8z"/>
	<path fill="#FAAB4C" d="M871.1,799.2h98.5c36.7,0,55.9-19.2,55.9-56.7V560.6h-72.6v155.1c0,6.7-3.3,9.9-9.9,9.9h-46.8
		c-6.7,0-9.9-3.3-9.9-10.8V559.6h-73.5v183.6C812.7,780.8,832.7,799.2,871.1,799.2z"/>
	<rect x="1047.2" y="491.2" fill="#FAAB4C" width="73.5" height="308"/>
	<path fill="#FAAB4C" d="M1199.8,560.5c-38.4,0-57.6,18.3-57.6,57.6V800h74.3V644.8c0-6.7,3.3-9.9,9.9-9.9h53.4v-73.5
		C1280,560.5,1199.8,560.5,1199.8,560.5z"/>
</g>
</svg>
