<?xml version="1.0" encoding="utf-8"?>
<!-- Generator: Adobe Illustrator 18.1.1, SVG Export Plug-In . SVG Version: 6.00 Build 0)  -->
<svg version="1.1" id="Layer_1" xmlns="http://www.w3.org/2000/svg" xmlns:xlink="http://www.w3.org/1999/xlink" x="0px" y="0px"
	 viewBox="-530 380 218 42" enable-background="new -530 380 218 42" xml:space="preserve">
<g>
	<path fill="#414042" d="M-489.6,399.1h17.3c0.6,0,1-0.5,1-1v-6.7c0-0.6-0.5-1-1-1h-17.3c-0.6,0-1,0.5-1,1v6.7
		C-490.6,398.6-490.1,399.1-489.6,399.1z"/>
	<path fill="#414042" d="M-510.9,399.1h17.3c0.6,0,1-0.5,1-1v-6.7c0-0.6-0.5-1-1-1h-17.3c-0.6,0-1,0.5-1,1v6.7
		C-511.9,398.6-511.5,399.1-510.9,399.1z"/>
	<path fill="#414042" d="M-526.2,399.1h11.4c0.6,0,1-0.5,1-1v-6.7c0-0.6-0.5-1-1-1h-11.4c-0.6,0-1,0.5-1,1v6.7
		C-527.2,398.6-526.7,399.1-526.2,399.1z"/>
	<path fill="#414042" d="M-472.2,411.2h-17.3c-0.6,0-1,0.5-1,1v6.7c0,0.6,0.5,1,1,1h17.3c0.6,0,1-0.5,1-1v-6.7
		C-471.2,411.7-471.7,411.2-472.2,411.2z"/>
	<path fill="#414042" d="M-493.6,411.2h-17.3c-0.6,0-1,0.5-1,1v6.7c0,0.6,0.5,1,1,1h17.3c0.6,0,1-0.5,1-1v-6.7
		C-492.6,411.7-493,411.2-493.6,411.2z"/>
	<path fill="#414042" d="M-514.8,411.2h-11.4c-0.6,0-1,0.5-1,1v6.7c0,0.6,0.5,1,1,1h11.4c0.6,0,1-0.5,1-1v-6.7
		C-513.7,411.7-514.2,411.2-514.8,411.2z"/>
	<path fill="#414042" d="M-508.8,409.6c0.6,0,1-0.5,1-1v-6.7c0-0.6-0.5-1-1-1h-17.3c-0.6,0-1,0.5-1,1v6.7c0,0.6,0.5,1,1,1H-508.8z"
		/>
	<path fill="#414042" d="M-504.7,400.8c-0.6,0-1,0.5-1,1v6.7c0,0.6,0.5,1,1,1h17.3c0.6,0,1-0.5,1-1v-6.7c0-0.6-0.5-1-1-1H-504.7z"/>
	<path fill="#414042" d="M-472.2,400.8h-11.4c-0.6,0-1,0.5-1,1v6.7c0,0.6,0.5,1,1,1h11.4c0.6,0,1-0.5,1-1v-6.7
		C-471.2,401.3-471.7,400.8-472.2,400.8z"/>
</g>
<g>
	<path fill="#414042" d="M-458.8,401.1c0-0.8,0.4-1.2,1.2-1.2h4.9v19.8h8.7V400h5c0.8,0,1.2,0.4,1.2,1.2v18.6h8.6V398
		c0-4.6-2.3-6.9-6.8-6.9h-24.7c-4.5,0-6.8,2.3-6.8,6.9v21.8h8.7C-458.8,419.7-458.8,401.1-458.8,401.1z"/>
	<path fill="#414042" d="M-419.8,419.7h12.3c4.4,0,6.7-2.3,6.7-6.8V398c0-4.6-2.3-6.9-6.8-6.9H-420c-4.5,0-6.8,2.3-6.8,6.9v15.1
		C-426.8,417.5-424.4,419.7-419.8,419.7z M-418,409.7v-8.5c0-0.8,0.4-1.2,1.2-1.2h6.1c0.8,0,1.2,0.4,1.2,1.2v8.6
		c0,0.8-0.4,1.2-1.2,1.2h-6.1C-417.6,410.9-418,410.5-418,409.7z"/>
	<path fill="#414042" d="M-391.6,419.7h19v-36.9h-8.8v8.3h-10.4c-4.5,0-6.8,2.3-6.8,6.9v15.1C-398.6,417.5-396.2,419.7-391.6,419.7z
		 M-389.8,409.7v-8.5c0-0.8,0.4-1.2,1.2-1.2h7.2v11h-7.2C-389.4,410.9-389.8,410.5-389.8,409.7z"/>
	<path fill="#414042" d="M-363.1,419.7h11.8c4.4,0,6.7-2.3,6.7-6.8v-21.8h-8.7v18.6c0,0.8-0.4,1.2-1.2,1.2h-5.6
		c-0.8,0-1.2-0.4-1.2-1.3v-18.6h-8.8v22C-370.1,417.5-367.7,419.7-363.1,419.7z"/>
	<rect x="-342" y="382.8" fill="#414042" width="8.8" height="36.9"/>
	<path fill="#414042" d="M-323.7,391.1c-4.6,0-6.9,2.2-6.9,6.9v21.8h8.9v-18.6c0-0.8,0.4-1.2,1.2-1.2h6.4v-8.8
		C-314.1,391.1-323.7,391.1-323.7,391.1z"/>
</g>
</svg>
