<?xml version="1.0" encoding="utf-8"?>
<!-- Generator: Adobe Illustrator 18.1.1, SVG Export Plug-In . SVG Version: 6.00 Build 0)  -->
<svg version="1.1" id="Layer_1" xmlns="http://www.w3.org/2000/svg" xmlns:xlink="http://www.w3.org/1999/xlink" x="0px" y="0px"
	 viewBox="365 307.1 900.6 217.2" enable-background="new 365 307.1 900.6 217.2" xml:space="preserve">
<g>
	<path fill="#FFFFFF" d="M416,414.6c0-4.7,2.3-7,7-7h28.8v116.3h51.1V408.1h29.4c4.7,0,7,2.3,7,7v109.2h50.5v-128
		c0-27-13.5-40.5-39.9-40.5h-145c-26.4,0-39.9,13.5-39.9,40.5v128h51C416,523.8,416,414.6,416,414.6z"/>
	<path fill="#FFFFFF" d="M645,523.8h72.2c25.8,0,39.3-13.5,39.3-39.9v-87.5c0-27-13.5-40.5-39.9-40.5h-72.8
		c-26.4,0-39.9,13.5-39.9,40.5V485C603.9,510.8,618,523.8,645,523.8z M655.6,465v-49.9c0-4.7,2.3-7,7-7h35.8c4.7,0,7,2.3,7,7v50.5
		c0,4.7-2.3,7-7,7h-35.8C657.9,472.1,655.6,469.7,655.6,465z"/>
	<path fill="#FFFFFF" d="M810.6,523.8h111.6V307.1h-51.7v48.7h-61.1c-26.4,0-39.9,13.5-39.9,40.5V485
		C769.5,510.8,783.6,523.8,810.6,523.8z M821.1,465v-49.9c0-4.7,2.3-7,7-7h42.3v64.6h-42.3C823.5,472.1,821.1,469.7,821.1,465z"/>
	<path fill="#FFFFFF" d="M977.9,523.8h69.3c25.8,0,39.3-13.5,39.3-39.9v-128h-51.1V465c0,4.7-2.3,7-7,7h-32.9c-4.7,0-7-2.3-7-7.6
		V355.2h-51.7v129.2C936.8,510.8,950.9,523.8,977.9,523.8z"/>
	<rect x="1101.8" y="307.1" fill="#FFFFFF" width="51.7" height="216.7"/>
	<path fill="#FFFFFF" d="M1209.2,355.8c-27,0-40.5,12.9-40.5,40.5v128h52.3V415.1c0-4.7,2.3-7,7-7h37.6v-51.7
		C1265.6,355.8,1209.2,355.8,1209.2,355.8z"/>
</g>
</svg>
